<svg width="117" height="63" viewBox="0 0 117 63" fill="none" xmlns="http://www.w3.org/2000/svg">
<path d="M0 10C0 4.47715 4.47715 0 10 0H106.383C111.906 0 116.383 4.47715 116.383 10V53C116.383 58.5228 111.906 63 106.383 63H10C4.47715 63 0 58.5228 0 53V10Z" fill="#E42433"/>
<path d="M42.9594 12.7117V27.0637L44.1354 27.0877V27.9277H37.7994V27.0877L38.9754 27.0637V20.3917H33.5994V27.0637L34.7754 27.0877V27.9277H28.4394V27.0877L29.6154 27.0637V12.7117L28.4394 12.6877V11.8477H34.7754V12.6877L33.5994 12.7117V19.5037H38.9754V12.7117L37.7994 12.6877V11.8477H44.1354V12.6877L42.9594 12.7117ZM59.8215 11.8477V12.6877L58.8135 12.7117L54.2295 21.0637V27.0637L55.4055 27.0877V27.9277H49.0695V27.0877L50.2455 27.0637V21.4237L45.6615 12.7117L44.6535 12.6877V11.8477H51.7095V12.6877L50.5335 12.7117L53.5815 19.6717L55.7895 12.7117L54.5655 12.6877V11.8477H59.8215ZM74.4073 16.5517C74.4073 18.2477 73.6793 19.5917 72.2233 20.5837C70.7833 21.5597 68.6713 22.0797 65.8873 22.1437V27.0637L68.5033 27.0877V27.9277H60.7273V27.0877L61.9033 27.0637V12.7117L60.7273 12.6877V11.8477L65.3593 11.8957L68.9353 11.7277C70.0873 11.7277 71.0713 11.9437 71.8873 12.3757C72.7193 12.8077 73.3433 13.3917 73.7593 14.1277C74.1913 14.8637 74.4073 15.6717 74.4073 16.5517ZM70.1353 17.2477C70.1353 16.3997 69.9513 15.6317 69.5833 14.9437C69.2153 14.2397 68.7033 13.6877 68.0473 13.2877C67.4073 12.8877 66.6873 12.6877 65.8873 12.6877V21.2077C67.2153 21.1277 68.2553 20.7437 69.0073 20.0557C69.7593 19.3517 70.1353 18.4157 70.1353 17.2477ZM87.7312 23.1517V27.9277H75.5632V27.0877L76.7392 27.0637V12.7117L75.5632 12.6877V11.8477H87.2512V16.5037L86.3152 16.4797L86.2672 15.2797C84.4912 14.1757 82.6432 13.2477 80.7232 12.4957L80.7712 19.1677H85.2592V20.0557H80.7712L80.8192 27.2557C82.8672 26.4717 84.8432 25.5117 86.7472 24.3757L86.7952 23.1757L87.7312 23.1517Z" fill="#FDFBFA"/>
<path d="M20.968 40.5997C21.816 40.5997 22.536 40.7757 23.128 41.1277C23.736 41.4637 24.192 41.9037 24.496 42.4477C24.8 42.9917 24.952 43.5677 24.952 44.1757C24.952 45.6637 24.312 46.8317 23.032 47.6797C21.768 48.5117 19.912 48.9277 17.464 48.9277H10.864V48.0877L12.04 48.0637V33.7117L10.864 33.6877V32.8477L15.496 32.8957L19 32.6077C20.536 32.6077 21.712 32.9437 22.528 33.6157C23.344 34.2717 23.752 35.1437 23.752 36.2317C23.752 37.2557 23.408 38.1437 22.72 38.8957C22.032 39.6317 21.024 40.2237 19.696 40.6717L20.968 40.5997ZM19.48 37.1437C19.48 36.0077 19.184 35.1517 18.592 34.5757C18.016 33.9837 17.16 33.6877 16.024 33.6877V40.5997C17.192 40.5197 18.056 40.1997 18.616 39.6397C19.192 39.0637 19.48 38.2317 19.48 37.1437ZM16.024 48.0877C17.656 48.0877 18.84 47.8317 19.576 47.3197C20.312 46.8077 20.68 45.9917 20.68 44.8717C20.68 43.7517 20.344 42.9037 19.672 42.3277C19.016 41.7517 18.04 41.4637 16.744 41.4637H16.024V48.0877ZM42.0344 32.8477V33.6877L40.8584 33.7117V48.9277H40.0904L37.0184 46.9117C36.4264 47.6317 35.7144 48.2077 34.8824 48.6397C34.0504 49.0717 33.1784 49.2877 32.2664 49.2877C30.6024 49.2877 29.3144 48.7597 28.4024 47.7037C27.4904 46.6477 27.0344 45.0077 27.0344 42.7837V33.7117L25.8584 33.6877V32.8477H32.2664V33.6877L31.0904 33.7117V42.1837C31.0904 43.6557 31.3944 44.7597 32.0024 45.4957C32.6104 46.2157 33.4424 46.5757 34.4984 46.5757C35.3944 46.5757 36.1864 46.3917 36.8744 46.0237V33.7117L35.6984 33.6877V32.8477H42.0344ZM59.2084 48.0877V48.9277H53.4244L50.1604 42.4957L50.2324 42.4477C49.8644 42.4797 49.3444 42.5117 48.6724 42.5437V48.0637L49.8484 48.0877V48.9277H43.5124V48.0877L44.6884 48.0637V33.7117L43.5124 33.6877V32.8477L48.1444 32.8957L51.7204 32.6077C52.8724 32.6077 53.8564 32.8237 54.6724 33.2557C55.5044 33.6717 56.1284 34.2397 56.5444 34.9597C56.9764 35.6637 57.1924 36.4477 57.1924 37.3117C57.1924 38.3037 56.9044 39.1677 56.3284 39.9037C55.7524 40.6397 54.8884 41.2317 53.7364 41.6797L58.0324 48.0637L59.2084 48.0877ZM48.6724 41.6077C50.0004 41.5277 51.0404 41.1677 51.7924 40.5277C52.5444 39.8717 52.9204 38.9917 52.9204 37.8877C52.9204 37.1037 52.7364 36.3917 52.3684 35.7517C52.0004 35.1117 51.4964 34.6077 50.8564 34.2397C50.2164 33.8717 49.4884 33.6877 48.6724 33.6877V41.6077ZM74.7936 40.5997V41.4397L73.7136 41.4637V48.9277H72.9456L71.1936 47.7277C70.5696 48.2237 69.8896 48.6077 69.1536 48.8797C68.4336 49.1517 67.6976 49.2877 66.9456 49.2877C65.5376 49.2877 64.2976 48.9677 63.2256 48.3277C62.1536 47.6717 61.3216 46.7597 60.7296 45.5917C60.1376 44.4077 59.8416 43.0397 59.8416 41.4877C59.8416 40.0157 60.1056 38.6237 60.6336 37.3117C61.1776 35.9997 61.8656 34.9517 62.6976 34.1677C63.5136 33.6397 64.3856 33.2397 65.3136 32.9677C66.2576 32.6797 67.1856 32.5357 68.0976 32.5357C69.3136 32.5357 70.4256 32.7997 71.4336 33.3277C72.4576 33.8397 73.2656 34.5597 73.8576 35.4877L70.9056 37.9597C70.0256 36.4717 69.0256 34.8877 67.9056 33.2077C66.8016 33.6877 65.8976 34.5757 65.1936 35.8717C64.4896 37.1677 64.1376 38.6397 64.1376 40.2877C64.1376 42.3197 64.5936 43.9197 65.5056 45.0877C66.4336 46.2397 67.6976 46.8157 69.2976 46.8157C69.5536 46.8157 69.7456 46.8077 69.8736 46.7917V41.4637L68.6976 41.4397V40.5997H74.7936ZM88.1648 44.1517V48.9277H75.9968V48.0877L77.1728 48.0637V33.7117L75.9968 33.6877V32.8477H87.6848V37.5037L86.7488 37.4797L86.7008 36.2797C84.9248 35.1757 83.0768 34.2477 81.1568 33.4957L81.2048 40.1677H85.6928V41.0557H81.2048L81.2528 48.2557C83.3008 47.4717 85.2768 46.5117 87.1808 45.3757L87.2288 44.1757L88.1648 44.1517ZM105.333 48.0877V48.9277H99.5494L96.2854 42.4957L96.3574 42.4477C95.9894 42.4797 95.4694 42.5117 94.7974 42.5437V48.0637L95.9734 48.0877V48.9277H89.6374V48.0877L90.8134 48.0637V33.7117L89.6374 33.6877V32.8477L94.2694 32.8957L97.8454 32.6077C98.9974 32.6077 99.9814 32.8237 100.797 33.2557C101.629 33.6717 102.253 34.2397 102.669 34.9597C103.101 35.6637 103.317 36.4477 103.317 37.3117C103.317 38.3037 103.029 39.1677 102.453 39.9037C101.877 40.6397 101.013 41.2317 99.8614 41.6797L104.157 48.0637L105.333 48.0877ZM94.7974 41.6077C96.1254 41.5277 97.1654 41.1677 97.9174 40.5277C98.6694 39.8717 99.0454 38.9917 99.0454 37.8877C99.0454 37.1037 98.8614 36.3917 98.4934 35.7517C98.1254 35.1117 97.6214 34.6077 96.9814 34.2397C96.3414 33.8717 95.6134 33.6877 94.7974 33.6877V41.6077Z" fill="#FDFBFA"/>
</svg>
